# xmcd
#
# Track frame offsets: 
#        183
#        14225
#        34195
#        44195
#        55960
#        67765
#        79068
#        91683
#        103180
#        112400
#        125303
#        135280
#        147980
#        157695
#        170835
#        181283
#        196403
#        210328
#        222318
#        233398
#        245788
#
# Disc length: 3430 seconds
#
# Revision: 1
# Processed by: cddbd v1.5.2PL0 Copyright (c) Steve Scherf et al.
# Submitted via: ExactAudioCopy v0.99pb3
#
DISCID=2d0d6415
DTITLE=Slim Harpo - I'm A King Bee
DYEAR=1989
DGENRE=Blues
TTITLE0=I'm A King Bee
TTITLE1=This Ain't No Place For Me
TTITLE2=That Ain't Your Business
TTITLE3=You Ain't Had To Cry
TTITLE4=Moody Blues
TTITLE5=Late Last Night
TTITLE6=Blues Hangover
TTITLE7=That's Alright
TTITLE8=Wonderin' And Worryin'
TTITLE9=What's Going On
TTITLE10=One More Day
TTITLE11=One Of These Days
TTITLE12=Buzzin'
TTITLE13=Things Gonna Change
TTITLE14=Don't Start Crying Now
TTITLE15=Dream Girl
TTITLE16=I Got Love If You Want It
TTITLE17=My Little Queen Bee
TTITLE18=Strange Love
TTITLE19=We're Two Of A Kind
TTITLE20=I Love The Life I'm Living
EXTD=slim harpo - i'm a king bee, shane chandler
EXTT0=
EXTT1=
EXTT2=
EXTT3=
EXTT4=
EXTT5=
EXTT6=
EXTT7=
EXTT8=
EXTT9=
EXTT10=
EXTT11=
EXTT12=
EXTT13=
EXTT14=
EXTT15=
EXTT16=
EXTT17=
EXTT18=
EXTT19=
EXTT20=
PLAYORDER=
